<svg width="17" height="11" viewBox="0 0 17 11" fill="none" xmlns="http://www.w3.org/2000/svg">
<g clip-path="url(#clip0_7_6)">
<path d="M14.4708 1.72707C14.4708 0.899239 13.7206 0.221924 12.8036 0.221924H10.3028V1.72707H12.8036V3.72139L9.9027 6.99507H6.96843V3.23221H3.63404C1.79179 3.23221 0.299652 4.57932 0.299652 6.2425V8.50022H1.96685C1.96685 9.74949 3.08387 10.7579 4.46764 10.7579C5.85141 10.7579 6.96843 9.74949 6.96843 8.50022H10.7029L14.4708 4.24819V1.72707ZM4.46764 9.25279C4.00916 9.25279 3.63404 8.91413 3.63404 8.50022H5.30124C5.30124 8.91413 4.92612 9.25279 4.46764 9.25279Z" fill="black"/>
<path d="M6.96844 0.974609H2.80045V2.47974H6.96844V0.974609Z" fill="black"/>
<path d="M14.4708 6.24243C13.087 6.24243 11.97 7.25088 11.97 8.50014C11.97 9.7494 13.087 10.7579 14.4708 10.7579C15.8546 10.7579 16.9716 9.7494 16.9716 8.50014C16.9716 7.25088 15.8546 6.24243 14.4708 6.24243ZM14.4708 9.25271C14.0123 9.25271 13.6372 8.91405 13.6372 8.50014C13.6372 8.08623 14.0123 7.74757 14.4708 7.74757C14.9293 7.74757 15.3044 8.08623 15.3044 8.50014C15.3044 8.91405 14.9293 9.25271 14.4708 9.25271Z" fill="black"/>
</g>
<defs>
<clipPath id="clip0_7_6">
<rect width="17" height="11" fill="white"/>
</clipPath>
</defs>
</svg>
